<svg height="512pt" viewBox="0 -120 512 512" width="512pt" xmlns="http://www.w3.org/2000/svg"><path d="m512 15.691406v241.058594c0 8.660156-7.03125 15.691406-15.703125 15.691406h-480.59375c-8.671875 0-15.703125-7.03125-15.703125-15.691406v-241.058594c0-8.660156 7.03125-15.691406 15.703125-15.691406h480.59375c8.671875 0 15.703125 7.03125 15.703125 15.691406zm0 0" fill="#fff5f4"/><path d="m52.097656 272.441406h-36.394531c-8.671875 0-15.703125-7.03125-15.703125-15.691406v-241.058594c0-8.660156 7.03125-15.691406 15.703125-15.691406h36.394531c-8.671875 0-15.703125 7.03125-15.703125 15.691406v241.058594c0 8.660156 7.03125 15.691406 15.703125 15.691406zm0 0" fill="#ebe0da"/><path d="m388.320312 136.21875c0 23.53125-17.417968 43.695312-40.292968 47.460938v88.761718h-15.597656v-92.289062c0-5.976563 4.636718-11.050782 10.5625-11.550782 16.671874-1.40625 29.730468-15.628906 29.730468-32.382812 0-16.75-13.058594-30.976562-29.730468-32.378906-5.925782-.5-10.5625-5.574219-10.5625-11.554688v-92.285156h15.597656v88.761719c22.875 3.765625 40.292968 23.925781 40.292968 47.457031zm0 0" fill="#ebe0da"/><g fill="#c8bebc"><path d="m476.792969 201.730469h-102.597657c-4.308593 0-7.800781 3.492187-7.800781 7.796875 0 4.308594 3.492188 7.800781 7.800781 7.800781h102.597657c4.308593 0 7.800781-3.492187 7.800781-7.800781 0-4.304688-3.492188-7.796875-7.800781-7.796875zm0 0"/><path d="m374.195312 40.554688h102.601563c4.304687 0 7.796875-3.492188 7.796875-7.800782 0-4.304687-3.492188-7.796875-7.796875-7.796875h-102.601563c-4.304687 0-7.796874 3.492188-7.796874 7.796875 0 4.308594 3.488281 7.800782 7.796874 7.800782zm0 0"/><path d="m476.792969 57.710938h-78.332031c-4.308594 0-7.800782 3.492187-7.800782 7.800781 0 4.304687 3.492188 7.796875 7.800782 7.796875h78.332031c4.308593 0 7.800781-3.492188 7.800781-7.796875 0-4.308594-3.492188-7.800781-7.800781-7.800781zm0 0"/><path d="m476.792969 231.367188h-102.597657c-4.308593 0-7.800781 3.492187-7.800781 7.796874 0 4.308594 3.492188 7.800782 7.800781 7.800782h102.597657c4.308593 0 7.800781-3.492188 7.800781-7.800782 0-4.304687-3.492188-7.796874-7.800781-7.796874zm0 0"/><path d="m250.453125 231.367188c0 4.304687 3.492187 7.796874 7.800781 7.796874h52.339844c4.304688 0 7.796875-3.492187 7.796875-7.796874 0-4.308594-3.492187-7.800782-7.796875-7.800782h-52.339844c-4.308594 0-7.800781 3.492188-7.800781 7.800782zm0 0"/><path d="m29.488281 223.566406c-4.308593 0-7.800781 3.492188-7.800781 7.800782 0 4.304687 3.492188 7.796874 7.800781 7.796874h197.570313c4.308594 0 7.796875-3.492187 7.796875-7.796874 0-4.308594-3.488281-7.800782-7.796875-7.800782zm0 0"/></g><path d="m254.402344 192.105469-55.722656-43.410157c-3.394532-2.652343-8.296876-2.050781-10.949219 1.347657-2.648438 3.394531-2.046875 8.292969 1.347656 10.945312l26.378906 20.5h-90.835937l25.136718-19.328125c3.394532-2.648437 4-7.550781 1.347657-10.945312-2.652344-3.394532-7.550781-3.996094-10.949219-1.347656l-54.480469 42.238281c-3.394531 2.652343-3.996093 7.554687-1.34375 10.949219 1.535157 1.96875 3.832031 3 6.148438 3 1.679687 0 3.371093-.542969 4.796875-1.652344l9.402344-7.34375c.183593.011718.363281.027344.546874.027344h129.625c.183594 0 .363282-.015626.542969-.027344l9.40625 7.34375c1.425781 1.113281 3.117188 1.652344 4.792969 1.652344 2.320312 0 4.617188-1.03125 6.152344-3 2.652344-3.398438 2.050781-8.296876-1.34375-10.949219zm0 0" fill="#72d1fb"/><path d="m232.511719 67.480469v71.289062c0 14.8125-12.648438 26.824219-28.246094 26.824219h-68.449219c-15.601562 0-28.25-12.011719-28.25-26.824219v-71.289062c0-14.828125 12.664063-26.851563 28.28125-26.851563h68.382813c15.621093 0 28.28125 12.023438 28.28125 26.851563zm0 0" fill="#8e8391"/><path d="m179.792969 133.035156h-19.511719c-4.304688 0-7.796875-3.492187-7.796875-7.796875 0-4.308593 3.492187-7.800781 7.796875-7.800781h19.511719c4.308593 0 7.800781 3.492188 7.800781 7.800781 0 4.304688-3.492188 7.796875-7.800781 7.796875zm0 0" fill="#655e67"/><path d="m179.792969 154.015625h-19.511719c-4.304688 0-7.796875-3.492187-7.796875-7.800781 0-4.304688 3.492187-7.796875 7.796875-7.796875h19.511719c4.308593 0 7.800781 3.492187 7.800781 7.796875 0 4.308594-3.492188 7.800781-7.800781 7.800781zm0 0" fill="#655e67"/><path d="m172.210938 165.589844h-36.398438c-15.597656 0-28.25-12.011719-28.25-26.820313v-71.289062c0-14.828125 12.664062-26.851563 28.28125-26.851563h36.398438c-15.621094 0-28.285157 12.023438-28.285157 26.851563v71.289062c0 14.808594 12.65625 26.820313 28.253907 26.820313zm0 0" fill="#766d78"/><path d="m107.5625 71.492188h52.859375c1.003906 0 1.816406.8125 1.816406 1.816406v30.996094c0 1.003906-.8125 1.816406-1.816406 1.816406h-52.859375zm0 0" fill="#93dcfc"/><path d="m232.511719 71.492188v34.628906h-52.855469c-1.011719 0-1.820312-.8125-1.820312-1.820313v-31c0-.996093.808593-1.808593 1.820312-1.808593zm0 0" fill="#93dcfc"/><path d="m145.761719 134.863281c0 6.269531-5.082031 11.351563-11.351563 11.351563-6.273437 0-11.355468-5.082032-11.355468-11.351563 0-6.273437 5.082031-11.355469 11.355468-11.355469 6.269532 0 11.351563 5.082032 11.351563 11.355469zm0 0" fill="#fed22b"/><path d="m217.023438 134.863281c0 6.269531-5.082032 11.351563-11.351563 11.351563-6.273437 0-11.355469-5.082032-11.355469-11.351563 0-6.273437 5.082032-11.355469 11.355469-11.355469 6.269531 0 11.351563 5.082032 11.351563 11.355469zm0 0" fill="#fed22b"/><path d="m107.5625 71.492188h36.394531v34.628906h-36.394531zm0 0" fill="#72d1fb"/><path d="m107.5625 71.492188h36.394531v34.628906h-36.394531zm0 0" fill="#72d1fb"/></svg>